<svg width="38" height="36" fill="none" xmlns="http://www.w3.org/2000/svg"><g clip-path="url(#clip0_3_285)" fill="#0158F3"><path d="M19.32 5.48c1.37.93 3.24.57 4.17-.8.93-1.37.57-3.24-.8-4.17a3.005 3.005 0 00-4.17.8c-.93 1.37-.57 3.24.8 4.17zm-7.03 6.81c.43-.63.95-1.18 1.54-1.64l-2.4-2c1.1-2.01.54-4.57-1.4-5.88a4.51 4.51 0 00-6.25 1.2 4.51 4.51 0 001.2 6.25c1.28.87 2.85.99 4.19.45l2.72 2.27c.12-.22.25-.44.4-.65zm2.87 10.91l-1.44 5.39c-.83.19-1.6.68-2.12 1.44-1.08 1.6-.66 3.78.94 4.86 1.6 1.08 3.78.66 4.86-.94 1.04-1.53.69-3.58-.75-4.7l1.41-5.29c-1.01-.06-2-.31-2.9-.76zm11.94-8.78l-3.43.23c-.38-1.06-1.07-2.03-2.08-2.71-.94-.64-2.02-.95-3.08-.95a5.5 5.5 0 00-4.56 2.42 5.51 5.51 0 001.47 7.64c.94.64 2.02.95 3.08.95a5.5 5.5 0 004.56-2.42c.41-.61.68-1.26.82-1.94l3.42-.23c-.3-.96-.37-1.99-.2-2.99zM7.02 17.77a4.51 4.51 0 00-6.25 1.2 4.51 4.51 0 001.2 6.25 4.51 4.51 0 006.25-1.2 4.51 4.51 0 00-1.2-6.25zm29-6c-.77-.52-1.65-.77-2.52-.77-1.44 0-2.86.69-3.73 1.98a4.51 4.51 0 001.2 6.25c.77.52 1.65.77 2.52.77 1.44 0 2.86-.69 3.73-1.98a4.51 4.51 0 00-1.2-6.25z"/></g><defs><clipPath id="clip0_3_285"><path fill="#fff" d="M0 0h38v35.5H0z"/></clipPath></defs></svg>