<svg width="43" height="39" fill="none" xmlns="http://www.w3.org/2000/svg"><path d="M33.03 2.54h-4c-.55 0-1 .45-1 1v14.94h6V3.54c0-.55-.45-1-1-1z" fill="#0158F3"/><path d="M31.72 21.83a9.932 9.932 0 01-7.07 2.93c-2.67 0-5.18-1.04-7.07-2.93-3.9-3.9-3.9-10.24 0-14.14a9.932 9.932 0 017.95-2.89v-4c-.29-.02-.58-.04-.88-.04-3.58 0-7.17 1.37-9.9 4.1-4.8 4.8-5.38 12.22-1.75 17.66l-2.75 2.75-.65-.65c-.2-.2-.51-.2-.71 0L.76 32.76a.996.996 0 000 1.41l3.77 3.77c.39.39 1.02.39 1.41 0l8.13-8.13c.2-.2.2-.51 0-.71l-.65-.65 2.65-2.65a13.97 13.97 0 0018.47-1.15c1.1-1.1 1.97-2.35 2.63-3.68h-4.71c-.23.29-.48.58-.75.85l.01.01zM20.53 10.54c-.55 0-1 .45-1 1v6.94h6v-6.94c0-.55-.45-1-1-1h-4zm21-3h-4c-.55 0-1 .45-1 1v9.94h6V8.54c0-.55-.45-1-1-1z" fill="#0158F3"/></svg>