<svg width="37" height="34" fill="none" xmlns="http://www.w3.org/2000/svg"><g clip-path="url(#clip0_3_310)" fill="#0158F3"><path d="M26 0H11a1 1 0 00-1 1v7a1 1 0 001 1h15a1 1 0 001-1V1a1 1 0 00-1-1zm10 25h-4v-5.5a2.5 2.5 0 00-2.5-2.5H20v-5.5h-3V17H7.5A2.5 2.5 0 005 19.5V25H1c-.55 0-1 .45-1 1v7c0 .55.45 1 1 1h11c.55 0 1-.45 1-1v-7c0-.55-.45-1-1-1H8v-5h21v5h-4c-.55 0-1 .45-1 1v7c0 .55.45 1 1 1h11c.55 0 1-.45 1-1v-7c0-.55-.45-1-1-1z"/></g><defs><clipPath id="clip0_3_310"><path fill="#fff" d="M0 0h37v34H0z"/></clipPath></defs></svg>