<svg width="36" height="37" fill="none" xmlns="http://www.w3.org/2000/svg"><g clip-path="url(#clip0_3_247)" fill="#0158F3"><path d="M32 0H21c-2.21 0-4 1.79-4 4v.82c1.28.42 2.39 1.22 3.19 2.28V5.24c0-.55.45-1 1-1h10.63c.55 0 1 .45 1 1v16.15c0 .55-.45 1-1 1H21.5V30H32c2.21 0 4-1.79 4-4V4c0-2.21-1.79-4-4-4zm-4.75 27.5h-1.5c-.83 0-1.5-.67-1.5-1.5s.67-1.5 1.5-1.5h1.5c.83 0 1.5.67 1.5 1.5s-.67 1.5-1.5 1.5zM15 7H4c-2.21 0-4 1.79-4 4v22c0 2.21 1.79 4 4 4h11c2.21 0 4-1.79 4-4V11c0-2.21-1.79-4-4-4zm-4.75 27.5h-1.5c-.83 0-1.5-.67-1.5-1.5s.67-1.5 1.5-1.5h1.5c.83 0 1.5.67 1.5 1.5s-.67 1.5-1.5 1.5zm5.56-6.11c0 .55-.45 1-1 1H4.18c-.55 0-1-.45-1-1V12.23c0-.55.45-1 1-1h10.63c.55 0 1 .45 1 1v16.16z"/><path d="M13.51 13.5h-1.13a.56.56 0 00-.56.56v.83c0 .25-.17.47-.42.54-.27.09-.54.2-.79.33-.22.11-.49.09-.67-.09l-.59-.59a.567.567 0 00-.8 0l-.8.8c-.22.22-.22.58 0 .8l.59.59c.18.18.2.44.09.67-.13.25-.24.51-.33.79-.08.24-.29.42-.54.42h-.83a.56.56 0 00-.56.56v1.13c0 .31.25.56.56.56h.83c.25 0 .47.17.54.42.09.27.2.54.33.79.11.22.09.49-.09.67l-.59.59c-.22.22-.22.58 0 .8l.8.8c.22.22.58.22.8 0l.59-.59c.18-.18.44-.2.67-.09.25.13.51.24.79.33.24.08.42.29.42.54v.83c0 .31.25.56.56.56h1.13c.31 0 .56-.25.56-.56v-3.62c-.35.15-.73.24-1.13.24-1.56 0-2.82-1.26-2.82-2.82 0-1.56 1.26-2.82 2.82-2.82.4 0 .78.09 1.13.24v-3.62a.56.56 0 00-.56-.56v-.03zm15.76-1.36h-.83c-.25 0-.47-.17-.54-.42-.09-.27-.2-.54-.33-.79a.575.575 0 01.09-.67l.59-.59c.22-.22.22-.58 0-.8l-.8-.8a.567.567 0 00-.8 0l-.59.59c-.18.18-.44.2-.67.09a5.05 5.05 0 00-.79-.33c-.24-.08-.42-.29-.42-.54v-.83a.56.56 0 00-.56-.56h-1.13a.56.56 0 00-.56.56v3.62c.35-.15.73-.24 1.13-.24 1.56 0 2.82 1.26 2.82 2.82 0 1.56-1.26 2.82-2.82 2.82-.4 0-.78-.09-1.13-.24v3.62c0 .31.25.56.56.56h1.13c.31 0 .56-.25.56-.56v-.83c0-.25.17-.47.42-.54.27-.09.54-.2.79-.33a.56.56 0 01.67.09l.59.59c.22.22.58.22.8 0l.8-.8c.22-.22.22-.58 0-.8l-.59-.59c-.18-.18-.2-.44-.09-.67.13-.25.24-.51.33-.79.08-.24.29-.42.54-.42h.83c.31 0 .56-.25.56-.56v-1.13a.56.56 0 00-.56-.56v.03z"/></g><defs><clipPath id="clip0_3_247"><path fill="#fff" d="M0 0h36v37H0z"/></clipPath></defs></svg>