<svg width="34" height="38" viewBox="0 0 34 38" fill="none" xmlns="http://www.w3.org/2000/svg">
<g clip-path="url(#clip0_3_268)">
<path d="M33.21 13.3L28.45 8.94C28.13 8.65 27.61 8.87 27.61 9.31V11.17H23.99V4C23.99 1.79 22.2 0 19.99 0H4C1.79 0 0 1.79 0 4V34C0 36.21 1.79 38 4 38H20C22.21 38 24 36.21 24 34V26.2H20V28C20 28.55 19.55 29 19 29H5C4.45 29 4 28.55 4 28V7C4 6.45 4.45 6 5 6H19C19.55 6 20 6.45 20 7V11.17H18.62C17.52 11.17 16.62 12.07 16.62 13.17V16.17H27.62V18.03C27.62 18.47 28.14 18.69 28.46 18.4L33.22 14.04C33.44 13.84 33.44 13.5 33.22 13.3H33.21ZM13 35.5H11C9.9 35.5 9 34.6 9 33.5C9 32.4 9.9 31.5 11 31.5H13C14.1 31.5 15 32.4 15 33.5C15 34.6 14.1 35.5 13 35.5Z" fill="#0158F3"/>
<path d="M11 13V10C11 9.45 10.55 9 10 9H7C6.45 9 6 9.45 6 10V13C6 13.55 6.45 14 7 14H10C10.55 14 11 13.55 11 13ZM14.34 18.67V16.81C14.34 16.37 13.82 16.15 13.5 16.44L8.74 20.8C8.52 21 8.52 21.34 8.74 21.54L13.5 25.9C13.82 26.19 14.34 25.97 14.34 25.53V23.67H22.34C23.44 23.67 24.34 22.77 24.34 21.67V18.67H14.34Z" fill="#0158F3"/>
</g>
<defs>
<clipPath id="clip0_3_268">
<rect width="33.38" height="38" fill="white"/>
</clipPath>
</defs>
</svg>
