<svg width="34" height="38" fill="none" xmlns="http://www.w3.org/2000/svg"><g clip-path="url(#clip0_3_268)" fill="#0158F3"><path d="M33.21 13.3l-4.76-4.36a.502.502 0 00-.84.37v1.86h-3.62V4c0-2.21-1.79-4-4-4H4C1.79 0 0 1.79 0 4v30c0 2.21 1.79 4 4 4h16c2.21 0 4-1.79 4-4v-7.8h-4V28c0 .55-.45 1-1 1H5c-.55 0-1-.45-1-1V7c0-.55.45-1 1-1h14c.55 0 1 .45 1 1v4.17h-1.38c-1.1 0-2 .9-2 2v3h11v1.86c0 .44.52.66.84.37l4.76-4.36c.22-.2.22-.54 0-.74h-.01zM13 35.5h-2c-1.1 0-2-.9-2-2s.9-2 2-2h2c1.1 0 2 .9 2 2s-.9 2-2 2z"/><path d="M11 13v-3c0-.55-.45-1-1-1H7c-.55 0-1 .45-1 1v3c0 .55.45 1 1 1h3c.55 0 1-.45 1-1zm3.34 5.67v-1.86c0-.44-.52-.66-.84-.37L8.74 20.8c-.22.2-.22.54 0 .74l4.76 4.36c.32.29.84.07.84-.37v-1.86h8c1.1 0 2-.9 2-2v-3h-10z"/></g><defs><clipPath id="clip0_3_268"><path fill="#fff" d="M0 0h33.38v38H0z"/></clipPath></defs></svg>