<svg width="13" height="13" viewBox="0 0 13 13" fill="none" xmlns="http://www.w3.org/2000/svg">
<path d="M2.2207 0.0107422H11.5332C11.9082 0.0107422 12.2207 0.146159 12.4707 0.416992C12.7415 0.666992 12.877 0.979492 12.877 1.35449V10.667C12.877 11.042 12.7415 11.3649 12.4707 11.6357C12.2207 11.8857 11.9082 12.0107 11.5332 12.0107H2.2207C1.8457 12.0107 1.52279 11.8857 1.25195 11.6357C1.00195 11.3649 0.876953 11.042 0.876953 10.667V1.35449C0.876953 0.979492 1.00195 0.666992 1.25195 0.416992C1.52279 0.146159 1.8457 0.0107422 2.2207 0.0107422ZM10.877 1.35449H9.2207C8.55404 1.35449 8.00195 1.58366 7.56445 2.04199C7.12695 2.47949 6.89779 3.02116 6.87695 3.66699V5.35449H5.5332V7.35449H6.87695V12.0107H8.87695V7.35449H10.877V5.35449H8.87695V4.01074C8.87695 3.82324 8.93945 3.66699 9.06445 3.54199C9.18945 3.41699 9.3457 3.35449 9.5332 3.35449H10.877V1.35449Z" fill="white"/>
</svg>
