<svg width="14" height="14" viewBox="0 0 14 14" fill="none" xmlns="http://www.w3.org/2000/svg">
<path d="M4.53076 0.354492H10.1558C11.2391 0.375326 12.1453 0.750326 12.8745 1.47949C13.6037 2.20866 13.9787 3.11491 13.9995 4.19824V9.82324C13.9787 10.9066 13.6037 11.8128 12.8745 12.542C12.1453 13.2712 11.2391 13.6462 10.1558 13.667H4.53076C3.44743 13.6462 2.54118 13.2712 1.81201 12.542C1.08285 11.8128 0.707845 10.9066 0.687012 9.82324V4.19824C0.707845 3.11491 1.08285 2.20866 1.81201 1.47949C2.54118 0.750326 3.44743 0.375326 4.53076 0.354492ZM4.40576 1.66699C3.71826 1.68783 3.14535 1.92741 2.68701 2.38574C2.24951 2.82324 2.02035 3.38574 1.99951 4.07324V9.94824C2.02035 10.6357 2.24951 11.2087 2.68701 11.667C3.14535 12.1045 3.71826 12.3337 4.40576 12.3545H10.2808C10.9683 12.3337 11.5308 12.1045 11.9683 11.667C12.4266 11.2087 12.6662 10.6357 12.687 9.94824V4.07324C12.6662 3.38574 12.4266 2.82324 11.9683 2.38574C11.5308 1.92741 10.9683 1.68783 10.2808 1.66699H4.40576ZM10.8433 2.66699C11.0724 2.68783 11.2599 2.78158 11.4058 2.94824C11.5724 3.09408 11.6558 3.28158 11.6558 3.51074C11.6558 3.73991 11.5724 3.93783 11.4058 4.10449C11.2599 4.25033 11.0724 4.32324 10.8433 4.32324C10.6141 4.32324 10.4162 4.25033 10.2495 4.10449C10.1037 3.93783 10.0308 3.73991 10.0308 3.51074C10.0308 3.28158 10.1037 3.09408 10.2495 2.94824C10.4162 2.78158 10.6141 2.68783 10.8433 2.66699ZM7.34326 3.66699C8.28076 3.68783 9.06201 4.02116 9.68701 4.66699C10.3328 5.29199 10.6662 6.07324 10.687 7.01074C10.6662 7.94824 10.3328 8.73991 9.68701 9.38574C9.06201 10.0107 8.28076 10.3337 7.34326 10.3545C6.40576 10.3337 5.6141 10.0107 4.96826 9.38574C4.34326 8.73991 4.02035 7.94824 3.99951 7.01074C4.02035 6.07324 4.34326 5.29199 4.96826 4.66699C5.6141 4.02116 6.40576 3.68783 7.34326 3.66699ZM7.34326 5.01074C6.78076 5.03158 6.31201 5.22949 5.93701 5.60449C5.56201 5.97949 5.37451 6.44824 5.37451 7.01074C5.37451 7.57324 5.56201 8.04199 5.93701 8.41699C6.31201 8.79199 6.78076 8.97949 7.34326 8.97949C7.90576 8.97949 8.37451 8.79199 8.74951 8.41699C9.12451 8.04199 9.31201 7.57324 9.31201 7.01074C9.31201 6.44824 9.12451 5.97949 8.74951 5.60449C8.37451 5.22949 7.90576 5.03158 7.34326 5.01074Z" fill="white"/>
</svg>
