<svg width="24" height="24" viewBox="0 0 24 24" fill="none" xmlns="http://www.w3.org/2000/svg">
<path fill-rule="evenodd" clip-rule="evenodd" d="M4.63604 4.63604C6.32387 2.94821 8.61305 2 11 2C13.3869 2 15.6761 2.94821 17.364 4.63604C19.0518 6.32387 20 8.61305 20 11C20 13.0512 19.2998 15.0302 18.0317 16.6175L21.7071 20.2929C22.0976 20.6834 22.0976 21.3166 21.7071 21.7071C21.3166 22.0976 20.6834 22.0976 20.2929 21.7071L16.6175 18.0317C15.0302 19.2998 13.0512 20 11 20C8.61305 20 6.32387 19.0518 4.63604 17.364C2.94821 15.6761 2 13.3869 2 11C2 8.61305 2.94821 6.32387 4.63604 4.63604ZM11 4C9.14348 4 7.36301 4.7375 6.05025 6.05025C4.7375 7.36301 4 9.14348 4 11C4 12.8565 4.7375 14.637 6.05025 15.9497C7.36301 17.2625 9.14348 18 11 18C12.8565 18 14.637 17.2625 15.9497 15.9497C17.2625 14.637 18 12.8565 18 11C18 9.14348 17.2625 7.36301 15.9497 6.05025C14.637 4.7375 12.8565 4 11 4Z" fill="black"/>
</svg>
