<svg width="15" height="12" viewBox="0 0 15 12" fill="none" xmlns="http://www.w3.org/2000/svg">
<path d="M14.687 1.68262C14.1662 1.91178 13.6245 2.06803 13.062 2.15137C13.6662 1.77637 14.0828 1.24512 14.312 0.557617C13.7495 0.890951 13.1453 1.12012 12.4995 1.24512C11.9578 0.661784 11.2495 0.359701 10.3745 0.338867C9.58285 0.359701 8.91618 0.640951 8.37451 1.18262C7.83285 1.72428 7.5516 2.40137 7.53076 3.21387C7.53076 3.44303 7.56201 3.66178 7.62451 3.87012C6.41618 3.78678 5.3016 3.4847 4.28076 2.96387C3.28076 2.44303 2.4266 1.74512 1.71826 0.870117C1.46826 1.30762 1.34326 1.78678 1.34326 2.30762C1.34326 2.80762 1.45785 3.26595 1.68701 3.68262C1.91618 4.09928 2.21826 4.43262 2.59326 4.68262C2.1141 4.66178 1.68701 4.5472 1.31201 4.33887V4.37012C1.31201 5.07845 1.52035 5.69303 1.93701 6.21387C2.37451 6.71387 2.9266 7.03678 3.59326 7.18262C3.3641 7.24512 3.1141 7.27637 2.84326 7.27637C2.65576 7.27637 2.47868 7.25553 2.31201 7.21387C2.49951 7.7972 2.83285 8.27637 3.31201 8.65137C3.79118 9.00553 4.34326 9.19303 4.96826 9.21387C4.4891 9.6097 3.94743 9.91178 3.34326 10.1201C2.7391 10.3285 2.10368 10.4326 1.43701 10.4326C1.20785 10.4326 0.978678 10.4222 0.749512 10.4014C1.37451 10.7972 2.0516 11.1097 2.78076 11.3389C3.53076 11.568 4.31201 11.6826 5.12451 11.6826C7.77034 11.5785 9.78076 10.693 11.1558 9.02637C12.5516 7.3597 13.2599 5.53678 13.2808 3.55762L13.2495 3.18262C13.812 2.76595 14.2912 2.26595 14.687 1.68262Z" fill="white"/>
</svg>
