<svg width="14" height="8" viewBox="0 0 14 8" fill="none" xmlns="http://www.w3.org/2000/svg">
<path d="M12.3561 5.40137C12.8561 5.88053 13.1895 6.24512 13.3561 6.49512C13.5436 6.72428 13.6374 6.8597 13.6374 6.90137C13.804 7.2347 13.7728 7.45345 13.5436 7.55762C13.3353 7.64095 13.2103 7.6722 13.1686 7.65137L11.4499 7.68262C11.4499 7.68262 11.3665 7.68262 11.1999 7.68262C11.0332 7.66178 10.8353 7.57845 10.6061 7.43262C10.2728 7.16178 9.94987 6.84928 9.63737 6.49512C9.3457 6.12012 9.08529 5.95345 8.85612 5.99512C8.62695 6.09928 8.49154 6.31803 8.44987 6.65137C8.4082 6.96387 8.39779 7.14095 8.41862 7.18262L8.38737 7.24512C8.38737 7.30762 8.35612 7.37012 8.29362 7.43262C8.23112 7.49512 8.1582 7.52637 8.07487 7.52637L7.16862 7.49512C7.12695 7.53678 6.7832 7.50553 6.13737 7.40137C5.49154 7.2972 4.77279 6.87012 3.98112 6.12012C3.14779 5.18262 2.42904 4.14095 1.82487 2.99512C1.24154 1.82845 0.939453 1.19303 0.91862 1.08887L0.88737 0.995117C0.866536 0.911784 0.876953 0.849284 0.91862 0.807617C0.98112 0.745117 1.05404 0.703451 1.13737 0.682617H1.29362H3.13737H3.26237C3.32487 0.703451 3.37695 0.734701 3.41862 0.776367C3.48112 0.818034 3.52279 0.870117 3.54362 0.932617L3.79362 1.46387C3.91862 1.75553 4.08529 2.07845 4.29362 2.43262C4.66862 3.07845 4.96029 3.50553 5.16862 3.71387C5.37695 3.9222 5.54362 3.9847 5.66862 3.90137C5.85612 3.7347 5.94987 3.40137 5.94987 2.90137C5.94987 2.38053 5.94987 2.08887 5.94987 2.02637L5.91862 1.71387C5.89779 1.50553 5.8457 1.31803 5.76237 1.15137C5.67904 1.0472 5.57487 0.974284 5.44987 0.932617C5.3457 0.890951 5.26237 0.870117 5.19987 0.870117C5.13737 0.870117 5.13737 0.828451 5.19987 0.745117C5.26237 0.661784 5.3457 0.578451 5.44987 0.495117C5.63737 0.432617 5.86654 0.390951 6.13737 0.370117C6.4082 0.349284 6.7207 0.338867 7.07487 0.338867C7.32487 0.338867 7.51237 0.349284 7.63737 0.370117C7.76237 0.390951 7.87695 0.411784 7.98112 0.432617C8.27279 0.495117 8.41862 0.703451 8.41862 1.05762C8.41862 1.39095 8.4082 1.90137 8.38737 2.58887C8.38737 2.83887 8.38737 3.08887 8.38737 3.33887C8.4082 3.58887 8.49154 3.77637 8.63737 3.90137C8.69987 3.96387 8.83529 3.9222 9.04362 3.77637C9.25195 3.6097 9.56445 3.1722 9.98112 2.46387C10.1895 2.08887 10.3561 1.74512 10.4811 1.43262L10.6999 0.932617L10.7311 0.870117C10.7728 0.828451 10.8145 0.786784 10.8561 0.745117C10.9186 0.703451 10.9811 0.682617 11.0436 0.682617H13.0436C13.0645 0.682617 13.1686 0.682617 13.3561 0.682617C13.5436 0.682617 13.6686 0.745117 13.7311 0.870117C13.8353 1.14095 13.502 1.7972 12.7311 2.83887C12.0645 3.65137 11.6999 4.18262 11.6374 4.43262C11.5749 4.66178 11.8145 4.9847 12.3561 5.40137Z" fill="white"/>
</svg>
