<svg width="160" height="48" fill="none" xmlns="http://www.w3.org/2000/svg"><g clip-path="url(#clip0_1513_2143)" fill="#fff"><path d="M89.683 46.286c.025.563.684.78 1.21.78.508-.018 1.136-.192 1.154-.805 0-.681-.645-.694-1.222-.768-.772-.08-1.55-.279-1.55-1.122 0-.842.797-1.22 1.55-1.22.727-.019 1.555.335 1.593 1.152h-.477c-.05-.532-.621-.7-1.104-.7-.464.019-1.047.21-1.047.762 0 .62.614.65 1.129.713.846.099 1.63.247 1.63 1.177 0 .929-.872 1.226-1.643 1.239-.79.018-1.68-.353-1.706-1.215h.496l-.013.007zm6.328 1.208c-1.191 0-2.145-.824-2.145-2.162 0-1.339.966-2.175 2.158-2.175 1.191 0 2.15.843 2.15 2.175 0 1.331-.877 2.162-2.163 2.162zm0-.465c.934 0 1.656-.688 1.656-1.704s-.709-1.722-1.65-1.722c-.94 0-1.643.688-1.643 1.722 0 1.035.709 1.704 1.637 1.704zm6.134-1.369h-1.857v1.772h-.508v-4.2h2.528v.44h-2.02v1.542h1.857v.446zm1.254-1.982v-.452h3.117v.452h-1.311v3.754h-.489v-3.754h-1.317zm7.018-.372l1.116 3.265h.013l.464-1.797c.163-.532.314-1.028.483-1.548h.527v.068l-1.305 4.163h-.351l-1.066-3.085-1.054 3.085h-.357l-1.324-4.15v-.081h.54l.489 1.555.483 1.79h.006l1.085-3.265h.251zm4.378 3.084l-.496 1.042h-.533v-.062l1.982-4.157h.226l1.963 4.157v.062h-.527l-.496-1.041h-2.126.007zm.169-.433h1.787l-.89-1.957-.897 1.957zm7.67 1.4v.068h-.533l-1.179-1.542h-1.11v1.542h-.515v-4.212h1.7c.872 0 1.449.595 1.449 1.35 0 .65-.421 1.103-1.016 1.252l1.204 1.536v.006zm-1.637-1.89c.539 0 .96-.358.96-.904 0-.545-.408-.904-.96-.904h-1.198v1.803h1.198v.006zm5.588-1.802h-1.963v1.375h1.9v.44h-1.9v1.487h2.032v.465h-2.54v-4.2h2.471v.44-.007zm4.233 2.621c.032.563.69.78 1.211.78.514-.018 1.141-.192 1.154-.805 0-.681-.64-.694-1.217-.768-.772-.08-1.549-.279-1.549-1.122 0-.842.796-1.22 1.543-1.22.733-.019 1.561.335 1.593 1.152h-.477c-.044-.532-.621-.7-1.11-.7-.47.019-1.054.21-1.054.762 0 .62.615.65 1.135.713.841.099 1.631.247 1.631 1.177 0 .929-.878 1.226-1.649 1.239-.791.018-1.675-.353-1.706-1.215h.489l.006.007zm6.924-2.621h-1.963v1.375h1.894v.44h-1.894v1.487h2.026v.465h-2.54v-4.2h2.471v.44l.006-.007zm5.055 3.692v.068h-.533l-1.179-1.542h-1.11v1.542h-.515v-4.212h1.7c.872 0 1.449.595 1.449 1.35 0 .65-.42 1.103-1.016 1.252l1.204 1.536v.006zm-1.637-1.89c.539 0 .96-.358.96-.904 0-.545-.408-.904-.96-.904h-1.198v1.803h1.198v.006zm5.068-.47l.727-1.771h.546v.074l-1.769 4.15h-.213l-1.781-4.15v-.074h.539l.74 1.771.615 1.574h.006l.596-1.574h-.006zm4.346 2.032v.402h-1.982v-.402h.734v-3.401h-.684v-.397h1.881v.397h-.683v3.4h.74-.006zm3.405-3.853c.822 0 1.637.44 1.894 1.313h-.495c-.264-.57-.784-.849-1.399-.849-.978-.018-1.637.707-1.637 1.692s.653 1.685 1.631 1.685c.652 0 1.204-.323 1.43-.93h.495c-.244.942-1.066 1.394-1.919 1.394-1.185 0-2.151-.83-2.151-2.15 0-1.319.96-2.174 2.151-2.149v-.006zm5.952.489h-1.963v1.375h1.894v.44h-1.894v1.487H160v.465h-2.546v-4.2h2.477v.44-.007zm-36.356-8.418c-6.228 0-11.295-5.006-11.295-11.157s5.067-11.157 11.295-11.157S134.87 17.94 134.87 24.09s-5.067 11.157-11.295 11.157zm0-20.474c-5.199 0-9.433 4.181-9.433 9.317 0 5.135 4.234 9.317 9.433 9.317s9.432-4.182 9.432-9.317c0-5.136-4.233-9.317-9.432-9.317zm34.682 3.215a.931.931 0 01-.935-.923c0-1.363-1.123-2.472-2.502-2.472a.931.931 0 01-.935-.923c0-.508.414-.923.935-.923 2.408 0 4.365 1.933 4.365 4.318 0 .508-.42.923-.935.923h.007zM142.314 34.8c-2.408 0-4.371-1.932-4.371-4.317a.93.93 0 01.934-.923c.515 0 .935.415.935.923 0 1.363 1.122 2.472 2.502 2.472.514 0 .935.415.935.923a.927.927 0 01-.935.923zm11.502 0h-7.544a.927.927 0 01-.935-.922c0-.515.42-.923.935-.923h7.544c2.308 0 4.183-1.853 4.183-4.132 0-2.28-1.875-4.132-4.183-4.132h-10.498c-3.33 0-6.046-2.683-6.046-5.972 0-3.29 2.709-5.972 6.046-5.972h7.77c.514 0 .935.415.935.923a.932.932 0 01-.935.923h-7.77c-2.302 0-4.183 1.852-4.183 4.132 0 2.28 1.875 4.132 4.183 4.132h10.498c3.337 0 6.046 2.682 6.046 5.972 0 3.29-2.715 5.972-6.046 5.972zm-63.166.224a.931.931 0 01-.935-.923V13.9a.93.93 0 01.934-.923c.515 0 .935.415.935.923v20.207c0 .508-.42.923-.935.923v-.006zm15.678-20.201H95.064a.931.931 0 01-.934-.923.93.93 0 01.934-.923h11.264c.514 0 .935.415.935.923a.927.927 0 01-.935.923zm-1.606 2.75a.93.93 0 00-.934-.923.93.93 0 00-.934.923V34.1c0 .508.42.923.934.923a.93.93 0 00.934-.923V17.573zm-41.668 17.45a.931.931 0 01-.934-.923V17.585c0-.508.42-.923.934-.923s.934.415.934.923V34.1a.927.927 0 01-.934.923z"/><path d="M75.616 24.92h3.048c3.33 0 6.046-2.682 6.046-5.972 0-3.29-2.716-5.971-6.046-5.971h-15.61a.931.931 0 00-.934.923c0 .508.42.923.934.923h15.61c2.308 0 4.183 1.852 4.183 4.132 0 2.28-1.875 4.132-4.183 4.132H66.786a.931.931 0 00-.935.922c0 .508.42.924.935.924h6.19l10.14 10.01a.937.937 0 001.317 0 .912.912 0 000-1.3l-8.817-8.71v-.013zM23.788.5C10.649.5 0 11.025 0 24.003c0 7.112 3.205 13.48 8.26 17.792v-2.206c0-1.933 1.586-3.506 3.55-3.506 1.962 0 3.549 1.567 3.549 3.506v6.387a23.93 23.93 0 008.435 1.53c2.214 0 4.572-.44 5.306-.595l-.972-1.666-2.96-5.067-.345-.595-4.497-7.688.025-.012a8.42 8.42 0 007.87-.49c2.403-1.462 4.015-4.076 4.015-7.062 0-4.59-3.763-8.3-8.404-8.3s-8.41 3.716-8.41 8.3c0 .062.012.124.012.186h-.081v4.04c0 1.932-1.587 3.506-3.55 3.506-1.963 0-3.55-1.568-3.55-3.507v-4.039h.076v-.186c0-8.455 6.936-15.307 15.497-15.307 8.56 0 15.497 6.852 15.497 15.307 0 5.582-3.036 10.451-7.558 13.127l4.002 6.852c7.061-4.077 11.815-11.634 11.815-20.3C47.582 11.024 36.933.5 23.788.5z"/></g><defs><clipPath id="clip0_1513_2143"><path fill="#fff" transform="translate(0 .5)" d="M0 0h160v47H0z"/></clipPath></defs></svg>