<svg width="193" height="58" fill="none" xmlns="http://www.w3.org/2000/svg"><g clip-path="url(#clip0_1502_1918)"><path d="M108.181 56.027c.03.684.824.947 1.46.947.612-.022 1.369-.233 1.392-.977 0-.826-.78-.841-1.475-.931-.931-.098-1.869-.338-1.869-1.36s.961-1.48 1.869-1.48c.877-.023 1.876.406 1.921 1.397h-.575c-.06-.646-.749-.849-1.331-.849-.56.023-1.264.256-1.264.925 0 .75.742.788 1.362.863 1.021.12 1.967.301 1.967 1.428s-1.052 1.487-1.982 1.502c-.953.023-2.028-.428-2.058-1.472h.598l-.015.007zm7.633 1.465c-1.438 0-2.587-.999-2.587-2.622 0-1.622 1.165-2.637 2.602-2.637 1.437 0 2.595 1.022 2.595 2.637 0 1.616-1.059 2.622-2.61 2.622zm0-.563c1.127 0 1.997-.834 1.997-2.066 0-1.232-.855-2.089-1.99-2.089-1.134 0-1.982.834-1.982 2.089s.855 2.066 1.975 2.066zm7.398-1.66h-2.239v2.148h-.613v-5.093h3.049v.533h-2.436v1.87h2.239v.542zm1.514-2.404v-.549h3.759v.549h-1.581v4.552h-.59v-4.552h-1.588zm8.465-.451l1.346 3.96h.015l.56-2.18c.197-.646.378-1.247.583-1.878h.635v.083l-1.573 5.048h-.424l-1.286-3.741-1.271 3.741h-.431l-1.596-5.033v-.098h.65l.59 1.886.583 2.171h.007l1.309-3.96h.303zm5.28 3.741l-.597 1.262h-.644v-.075l2.391-5.041h.272l2.368 5.041v.075h-.635l-.598-1.262h-2.564.007zm.204-.526h2.156l-1.074-2.374-1.082 2.374zm9.252 1.698v.083h-.643l-1.422-1.87h-1.339v1.87h-.62V52.3h2.05c1.052 0 1.747.721 1.747 1.638 0 .789-.506 1.337-1.225 1.517l1.452 1.864v.007zm-1.974-2.291c.651 0 1.157-.436 1.157-1.097s-.491-1.097-1.157-1.097h-1.445v2.186h1.445v.008zm6.741-2.186h-2.368v1.667h2.292v.534h-2.292v1.803h2.451v.563h-3.064v-5.093h2.981v.533-.007zm5.106 3.177c.038.684.832.947 1.46.947.62-.022 1.377-.233 1.392-.977 0-.826-.772-.841-1.468-.931-.93-.098-1.868-.338-1.868-1.36s.96-1.48 1.861-1.48c.885-.023 1.883.406 1.921 1.397h-.575c-.053-.646-.749-.849-1.339-.849-.567.023-1.271.256-1.271.925 0 .75.742.788 1.37.863 1.013.12 1.966.301 1.966 1.428s-1.059 1.487-1.989 1.502c-.953.023-2.02-.428-2.058-1.472h.59l.008.007zm8.352-3.177h-2.368v1.667h2.285v.534h-2.285v1.803h2.443v.563h-3.063v-5.093h2.98v.533l.008-.007zm6.097 4.477v.083h-.643l-1.422-1.87h-1.339v1.87h-.62V52.3h2.05c1.051 0 1.747.721 1.747 1.638 0 .789-.507 1.337-1.225 1.517l1.452 1.864v.007zm-1.974-2.291c.65 0 1.157-.436 1.157-1.097s-.492-1.097-1.157-1.097h-1.445v2.186h1.445v.008zm6.112-.571l.878-2.149h.658v.09l-2.134 5.034h-.257l-2.148-5.034v-.09h.65l.893 2.149.741 1.908h.008l.719-1.908h-.008zm5.243 2.465v.487h-2.391v-.488h.885v-4.124h-.824v-.481h2.269v.48h-.824v4.125h.892-.007zm4.108-4.674c.991 0 1.974.533 2.285 1.593h-.598c-.318-.691-.946-1.03-1.687-1.03-1.18-.022-1.975.857-1.975 2.052 0 1.194.787 2.043 1.967 2.043.787 0 1.453-.39 1.725-1.127h.598c-.295 1.142-1.286 1.69-2.315 1.69-1.43 0-2.595-1.006-2.595-2.606 0-1.6 1.158-2.637 2.595-2.607v-.008zm7.179.594h-2.368v1.667h2.285v.534h-2.285v1.803H193v.563h-3.071v-5.093h2.988v.533-.007zm-43.855-10.21c-7.512 0-13.624-6.07-13.624-13.531 0-7.46 6.112-13.53 13.624-13.53 7.512 0 13.625 6.07 13.625 13.53 0 7.46-6.113 13.53-13.625 13.53zm0-24.83c-6.271 0-11.378 5.07-11.378 11.299 0 6.228 5.107 11.3 11.378 11.3 6.272 0 11.378-5.072 11.378-11.3 0-6.228-5.106-11.3-11.378-11.3z" fill="#1D1D1B"/><path d="M190.897 21.709c-.62 0-1.127-.503-1.127-1.12 0-1.652-1.354-2.997-3.019-2.997-.62 0-1.127-.503-1.127-1.12a1.12 1.12 0 011.127-1.119c2.905 0 5.266 2.344 5.266 5.237 0 .616-.507 1.119-1.128 1.119h.008z" fill="#E84E0F"/><path d="M171.666 42.099c-2.905 0-5.272-2.344-5.272-5.237a1.127 1.127 0 012.254 0c0 1.653 1.354 2.998 3.018 2.998.621 0 1.128.503 1.128 1.12 0 .615-.5 1.119-1.128 1.119zm13.875 0h-9.101c-.62 0-1.127-.496-1.127-1.12 0-.623.507-1.12 1.127-1.12h9.101c2.784 0 5.046-2.245 5.046-5.01 0-2.765-2.262-5.011-5.046-5.011h-12.664c-4.017 0-7.293-3.253-7.293-7.243 0-3.989 3.268-7.242 7.293-7.242h9.373c.62 0 1.127.503 1.127 1.12 0 .616-.507 1.119-1.127 1.119h-9.373c-2.777 0-5.046 2.246-5.046 5.01 0 2.766 2.262 5.012 5.046 5.012h12.664c4.024 0 7.292 3.253 7.292 7.242 0 3.99-3.275 7.243-7.292 7.243zm-76.196.271c-.62 0-1.127-.504-1.127-1.12v-24.5a1.127 1.127 0 012.255 0v24.507c0 .616-.507 1.12-1.128 1.12v-.008zm18.913-24.5h-13.587c-.62 0-1.127-.504-1.127-1.12 0-.616.507-1.12 1.127-1.12h13.587c.62 0 1.127.504 1.127 1.12 0 .616-.499 1.12-1.127 1.12zm-1.937 3.335a1.126 1.126 0 00-2.254 0V41.25a1.126 1.126 0 002.254 0V21.205zM76.06 42.37a1.127 1.127 0 01-1.128-1.12V21.22c0-.616.507-1.119 1.127-1.119s1.127.503 1.127 1.12V41.25c0 .616-.499 1.12-1.127 1.12z" fill="#1D1D1B"/><path d="M91.212 30.116h3.677c4.017 0 7.293-3.253 7.293-7.243s-3.276-7.242-7.293-7.242h-18.83c-.62 0-1.127.503-1.127 1.12 0 .615.507 1.119 1.127 1.119h18.83c2.784 0 5.046 2.246 5.046 5.01 0 2.765-2.262 5.012-5.046 5.012H80.56c-.62 0-1.128.503-1.128 1.12 0 .615.507 1.119 1.127 1.119h7.467l12.233 12.14c.219.218.507.331.794.331.288 0 .575-.113.795-.33a1.111 1.111 0 000-1.578L91.212 30.13v-.015z" fill="#1D1D1B"/><path d="M28.694.5C12.846.5 0 13.264 0 29.004c0 8.625 3.866 16.348 9.963 21.577v-2.675c0-2.344 1.914-4.252 4.282-4.252 2.368 0 4.282 1.9 4.282 4.252v7.746a28.726 28.726 0 0010.175 1.855c2.67 0 5.515-.533 6.4-.72l-1.173-2.022-3.57-6.145-.417-.721-5.424-9.324.03-.015a10.116 10.116 0 009.494-.593c2.898-1.773 4.842-4.944 4.842-8.565 0-5.567-4.539-10.067-10.137-10.067-5.598 0-10.145 4.507-10.145 10.067 0 .075.016.15.016.225h-.099v4.899c0 2.344-1.914 4.252-4.281 4.252-2.368 0-4.282-1.9-4.282-4.252v-4.899h.09v-.225c0-10.255 8.367-18.564 18.694-18.564 10.326 0 18.693 8.309 18.693 18.564 0 6.769-3.661 12.674-9.116 15.92l4.827 8.309c8.518-4.944 14.252-14.11 14.252-24.62C57.396 13.264 44.551.5 28.694.5z" fill="url(#paint0_linear_1502_1918)"/></g><defs><linearGradient id="paint0_linear_1502_1918" x1="8.412" y1="8.847" x2="48.71" y2="49.425" gradientUnits="userSpaceOnUse"><stop stop-color="#FE0"/><stop offset=".32" stop-color="#FBBA00"/><stop offset=".4" stop-color="#F58E04"/><stop offset=".5" stop-color="#EF6508"/><stop offset=".59" stop-color="#EB420C"/><stop offset=".69" stop-color="#E7280F"/><stop offset=".79" stop-color="#E51511"/><stop offset=".89" stop-color="#E30912"/><stop offset="1" stop-color="#E30613"/></linearGradient><clipPath id="clip0_1502_1918"><path fill="#fff" transform="translate(0 .5)" d="M0 0h193v57H0z"/></clipPath></defs></svg>