<?xml version="1.0" encoding="utf-8"?><svg xmlns="http://www.w3.org/2000/svg" xmlns:xlink="http://www.w3.org/1999/xlink"><symbol viewBox="0 0 10 11" id="arrow-up" xmlns="http://www.w3.org/2000/svg"><path fill-rule="evenodd" clip-rule="evenodd" d="M.406 6.238a.812.812 0 10-1.148 NaN NaNlNaN NaNa.812.812 0 11.148 0 NaN NaNlNaN NaN NaN NaNa.812.812 0 1-1.149 NaN NaNlNaN NaNvNaNa.812.812 0 11-1.624 NaN NaNvNaNlNaN NaNa.812.812 0 1-1.148 NaN NaNz"/></symbol><symbol viewBox="0 0 13 13" id="fb" xmlns="http://www.w3.org/2000/svg"><path d="M2.22.01h9.313c.375 0 .688.136.938.407.27.25.406.562.406.937v9.313c0 .375-.136.698-.406.969-.25.25-.563.375-.938.375H2.221a1.38 1.38 0 0 1-.97-.375 1.38 1.38 0 0 1-.374-.969V1.354c0-.375.125-.687.375-.937.27-.27.594-.406.969-.406zm8.657 1.344H9.221c-.667 0-1.219.23-1.657.688-.437.437-.666.98-.687 1.625v1.687H5.533v2h1.344v4.657h2V7.354h2v-2h-2V4.011c0-.188.062-.344.187-.469a.636.636 0 0 1 .47-.188h1.343v-2z"/></symbol><symbol viewBox="0 0 14 14" id="insta" xmlns="http://www.w3.org/2000/svg"><path d="M4.53.354h5.626c1.083.021 1.99.396 2.718 1.125.73.73 1.105 1.636 1.125 2.72v5.624c-.02 1.084-.395 1.99-1.125 2.719-.729.73-1.635 1.104-2.718 1.125H4.53c-1.084-.02-1.99-.396-2.719-1.125-.73-.73-1.104-1.635-1.125-2.719V4.198c.02-1.083.396-1.99 1.125-2.719C2.542.75 3.447.375 4.531.354zm-.124 1.313c-.688.02-1.26.26-1.719.719-.437.437-.667 1-.687 1.687v5.875c.02.688.25 1.26.687 1.719.458.438 1.031.667 1.719.688h5.875c.687-.021 1.25-.25 1.687-.688.459-.458.698-1.031.719-1.719V4.073c-.02-.687-.26-1.25-.719-1.687-.437-.459-1-.698-1.687-.719H4.406zm6.437 1c.23.02.417.115.563.281.166.146.25.334.25.563 0 .229-.084.427-.25.593a.762.762 0 0 1-.563.22.872.872 0 0 1-.594-.22.872.872 0 0 1-.218-.593c0-.23.073-.417.218-.563a.937.937 0 0 1 .594-.281zm-3.5 1c.938.02 1.719.354 2.344 1 .646.625.98 1.406 1 2.344-.02.937-.354 1.729-1 2.375-.625.625-1.406.948-2.344.969-.937-.021-1.729-.344-2.375-.97C4.343 8.74 4.02 7.949 4 7.012c.02-.938.343-1.719.968-2.344.646-.646 1.438-.98 2.375-1zm0 1.344c-.562.02-1.031.218-1.406.593s-.562.844-.562 1.407c0 .562.187 1.031.562 1.406.375.375.844.562 1.406.562.563 0 1.032-.187 1.407-.562.375-.375.562-.844.562-1.406 0-.563-.187-1.032-.562-1.407-.375-.375-.844-.572-1.407-.593z"/></symbol><symbol viewBox="0 0 16 16" id="minus" xmlns="http://www.w3.org/2000/svg"><rect x="2" y="7" width="12" height="2" rx="1"/></symbol><symbol viewBox="0 0 16 16" id="plus" xmlns="http://www.w3.org/2000/svg"><path d="M2 8a1 1 0 0 1 1-1h10a1 1 0 1 1 0 2H3a1 1 0 0 1-1-1z"/><path d="M8 2a1 1 0 0 1 1 1v10a1 1 0 1 1-2 0V3a1 1 0 0 1 1-1z"/></symbol><symbol viewBox="0 0 24 24" id="search" xmlns="http://www.w3.org/2000/svg"><path fill-rule="evenodd" clip-rule="evenodd" d="M4.636 4.636a9 9 0 0 1 13.396 11.981l3.675 3.676a1 1 0 0 1-1.414 1.414l-3.675-3.675A9 9 0 0 1 4.636 4.636zM11 4a7 7 0 1 0 0 14 7 7 0 0 0 0-14z"/></symbol><symbol viewBox="0 0 15 12" id="tw" xmlns="http://www.w3.org/2000/svg"><path d="M14.687 1.683c-.52.229-1.063.385-1.625.468a2.894 2.894 0 0 0 1.25-1.593 5.626 5.626 0 0 1-1.813.687C11.958.662 11.25.36 10.374.34c-.791.02-1.458.302-2 .844-.541.541-.822 1.218-.843 2.03 0 .23.031.449.094.657a8.575 8.575 0 0 1-3.344-.906A8.042 8.042 0 0 1 1.718.87c-.25.438-.375.917-.375 1.438 0 .5.115.958.344 1.375.23.416.531.75.906 1a2.856 2.856 0 0 1-1.281-.344v.031c0 .708.208 1.323.625 1.844.438.5.99.823 1.656.969-.229.062-.479.093-.75.093-.187 0-.364-.02-.531-.062a2.92 2.92 0 0 0 1 1.437 2.88 2.88 0 0 0 1.656.563c-.479.396-1.02.698-1.625.906a5.804 5.804 0 0 1-1.906.313c-.23 0-.458-.01-.687-.032a8.595 8.595 0 0 0 2.03.938c.75.229 1.532.344 2.345.344 2.645-.104 4.656-.99 6.03-2.657 1.397-1.666 2.105-3.49 2.126-5.468l-.032-.375a6.15 6.15 0 0 0 1.438-1.5z"/></symbol><symbol viewBox="0 0 24 24" id="user" xmlns="http://www.w3.org/2000/svg"><path fill-rule="evenodd" clip-rule="evenodd" d="M4.464 15.464A5 5 0 0 1 8 14h8a5 5 0 0 1 5 5v2a1 1 0 1 1-2 0v-2a3 3 0 0 0-3-3H8a3 3 0 0 0-3 3v2a1 1 0 1 1-2 0v-2a5 5 0 0 1 1.464-3.536zM12 4a3 3 0 1 0 0 6 3 3 0 0 0 0-6zM7 7a5 5 0 1 1 10 0A5 5 0 0 1 7 7z"/></symbol><symbol viewBox="0 0 14 8" id="vk" xmlns="http://www.w3.org/2000/svg"><path d="M12.356 5.401c.5.48.834.844 1 1.094.188.23.281.365.281.406.167.334.136.552-.093.657-.209.083-.334.114-.375.093l-1.72.032h-.25c-.166-.021-.364-.105-.593-.25a8.158 8.158 0 0 1-.969-.938c-.291-.375-.552-.542-.78-.5-.23.104-.365.323-.407.656-.042.313-.052.49-.031.532l-.032.062c0 .063-.03.125-.093.188a.3.3 0 0 1-.22.093l-.905-.03c-.042.04-.386.01-1.032-.095-.645-.104-1.364-.53-2.156-1.28a15.711 15.711 0 0 1-2.156-3.126C1.242 1.828.939 1.193.919 1.09L.887.995C.867.912.877.85.92.808a.464.464 0 0 1 .218-.125h2.125c.063.02.115.052.157.093a.301.301 0 0 1 .125.157l.25.53c.125.293.291.615.5.97.375.645.666 1.073.875 1.28.208.21.375.272.5.188.187-.166.28-.5.28-1v-.875l-.03-.312a1.604 1.604 0 0 0-.157-.563.66.66 0 0 0-.312-.218A.72.72 0 0 0 5.2.87c-.063 0-.063-.042 0-.125.062-.083.146-.167.25-.25.187-.062.417-.104.687-.125.271-.02.584-.031.938-.031.25 0 .437.01.562.031.125.021.24.042.344.063.292.062.438.27.438.625 0 .333-.01.843-.032 1.53v.75c.021.25.105.438.25.563.063.063.198.021.407-.125.208-.166.52-.604.937-1.312.209-.375.375-.719.5-1.031l.219-.5.031-.063.125-.125a.336.336 0 0 1 .188-.062h2.312c.188 0 .313.062.375.187.104.27-.229.927-1 1.969-.666.812-1.031 1.344-1.094 1.594-.062.229.178.552.72.968z"/></symbol></svg>